<svg id="Layer_1" data-name="Layer 1" xmlns="http://www.w3.org/2000/svg" xmlns:xlink="http://www.w3.org/1999/xlink" viewBox="0 0 269.25 320"><defs><style>.cls-1{fill:none;}.cls-2{clip-path:url(#clip-path);}.cls-3{fill:#fff;}</style><clipPath id="clip-path"><rect class="cls-1" width="269.25" height="320"/></clipPath></defs><g class="cls-2"><path class="cls-3" d="M181.69,180.25c0,20.4-9.19,45.14-46.94,45.14s-46.94-24.74-46.94-45.14,9.18-45.13,46.94-45.13,46.94,24.74,46.94,45.13m-50,37.61c1,0,2,.06,3.05.06,33.6,0,41.77-22,41.77-40.17,0-17.25-7.38-38-36.94-40l-1.79,4.91c-1,0-2-.06-3-.06-33.61,0-41.78,22-41.78,40.17,0,17.25,7.38,38,36.95,40Z"/><path class="cls-3" d="M170.42,180.25c0,15.1-7,33.41-35.67,33.41s-35.68-18.31-35.68-33.41,7-33.4,35.68-33.4,35.67,18.31,35.67,33.4m-36.88-25.91c-22.78.52-28.37,15.79-28.37,28.42s5.69,28.17,29,28.43l1.83-5c22.77-.52,28.36-15.79,28.36-28.42s-5.69-28.17-29-28.43Z"/><path class="cls-3" d="M137.77,201.19l3-8.12c2.39-6.59,1-10.93-6-12.81s-8.38-6.23-6-12.82l2.95-8.12c1-.07,2-.11,3-.11,18.5,0,23,11.54,23,21,0,9-4,19.73-20,20.93"/><path class="cls-3" d="M78,259.62c-4.93-1.7-7.86-2.35-10.75-2.35S62,258.38,62,259.69c0,4,17.09,3.12,17.09,12.31,0,5.05-5,7.46-12.59,7.46a28.22,28.22,0,0,1-12.24-2.54v-5.68c4.87,2.51,7.86,3.4,11.59,3.4,3.23,0,5.15-1.5,5.15-3.05,0-4.32-17-2.74-17-12.2,0-4.55,4.64-6.95,12.5-6.95A34.64,34.64,0,0,1,78,254.49Z"/><rect class="cls-3" x="85.45" y="252.79" width="7.14" height="26.33"/><polygon class="cls-3" points="107.37 279.12 99.97 279.12 99.97 252.79 106.77 252.79 122.76 269.24 122.76 252.79 129.91 252.79 129.91 279.12 123.93 279.12 107.37 261.81 107.37 279.12"/><polygon class="cls-3" points="187.86 279.12 165.14 279.12 165.14 252.79 187.89 252.79 187.89 257.35 172.2 257.35 172.2 263.22 186.33 263.22 186.33 267.87 172.2 267.87 172.2 274.46 187.86 274.46 187.86 279.12"/><polygon class="cls-3" points="215.45 257.35 199.56 257.35 199.56 263.57 213.77 263.57 213.77 268.22 199.56 268.22 199.56 279.12 192.51 279.12 192.51 252.79 215.45 252.79 215.45 257.35"/><polygon class="cls-3" points="151.09 279.12 151.09 257.44 161.53 257.44 161.53 252.79 133.46 252.79 133.46 257.44 143.98 257.44 143.98 279.12 151.09 279.12"/></g></svg>